<mxfile host="app.diagrams.net" modified="2023-08-08T11:30:53.547Z" agent="Mozilla/5.0 (Windows NT 10.0; Win64; x64) AppleWebKit/537.36 (KHTML, like Gecko) Chrome/115.0.0.0 Safari/537.36" version="21.6.6" etag="YAET2DQxPWOrU2z86qzV" type="github">
  <diagram name="페이지-1" id="1tvNEnKp07PguabGW2L_">
    <mxGraphModel>
      <root>
        <mxCell id="0" />
        <mxCell id="1" parent="0" />
      </root>
    </mxGraphModel>
  </diagram>
</mxfile>
